<svg width="16" height="16" viewBox="0 0 16 16" fill="none" xmlns="http://www.w3.org/2000/svg">
<path fill-rule="evenodd" clip-rule="evenodd" d="M9.90759 3.86523H3.54502C2.13986 3.86523 1 5.00443 1 6.4096V10.2278C1 11.633 2.13986 12.7728 3.54502 12.7728H4.81754L6.72665 14.6819L8.63507 12.7728H9.90759C11.3134 12.7728 12.4526 11.633 12.4526 10.2278V6.4096C12.4526 5.00443 11.3134 3.86523 9.90759 3.86523Z" stroke="white"/>
<path d="M12.4545 10.226C13.8603 10.226 14.9995 9.08676 14.9995 7.68093V3.86338C14.9995 2.45689 13.8603 1.31836 12.4545 1.31836H6.09194C4.68544 1.31836 3.54688 2.45689 3.54688 3.86338" stroke="white"/>
<path d="M3.54688 7.04492H9.90944" stroke="white"/>
<path d="M3.54688 9.58789H9.90944" stroke="white"/>
</svg>
