<svg width="14" height="14" viewBox="0 0 14 14" fill="none" xmlns="http://www.w3.org/2000/svg">
<g clip-path="url(#clip0_20381_3265)">
<path d="M9.91536 12.25V11.0833C9.91536 10.4645 9.66953 9.871 9.23195 9.43342C8.79436 8.99583 8.20087 8.75 7.58203 8.75H2.91536C2.29653 8.75 1.70303 8.99583 1.26545 9.43342C0.827864 9.871 0.582031 10.4645 0.582031 11.0833V12.25" stroke="#0969DA" stroke-width="1.25" stroke-linecap="round" stroke-linejoin="round"/>
<path d="M5.2513 6.41667C6.53997 6.41667 7.58464 5.372 7.58464 4.08333C7.58464 2.79467 6.53997 1.75 5.2513 1.75C3.96264 1.75 2.91797 2.79467 2.91797 4.08333C2.91797 5.372 3.96264 6.41667 5.2513 6.41667Z" stroke="#0969DA" stroke-width="1.25" stroke-linecap="round" stroke-linejoin="round"/>
<path d="M13.418 12.2503V11.0837C13.4176 10.5667 13.2455 10.0645 12.9288 9.65586C12.612 9.24726 12.1685 8.95542 11.668 8.82617" stroke="#0969DA" stroke-width="1.25" stroke-linecap="round" stroke-linejoin="round"/>
<path d="M9 2C9.50191 2.12851 9.94677 2.42041 10.2645 2.82968C10.5821 3.23895 10.7546 3.74232 10.7546 4.26042C10.7546 4.77852 10.5821 5.28188 10.2645 5.69115C9.94677 6.10042 9.50191 6.39232 9 6.52083" stroke="#0969DA" stroke-width="1.25" stroke-linecap="round" stroke-linejoin="round"/>
</g>
<defs>
<clipPath id="clip0_20381_3265">
<rect width="14" height="14" fill="white"/>
</clipPath>
</defs>
</svg>
