<?xml version="1.0" encoding="utf-8"?>
<!-- Generator: Adobe Illustrator 21.1.0, SVG Export Plug-In . SVG Version: 6.00 Build 0)  -->
<svg version="1.1" id="Layer_1" xmlns="http://www.w3.org/2000/svg" xmlns:xlink="http://www.w3.org/1999/xlink" x="0px" y="0px"
	 viewBox="0 0 146 25" style="enable-background:new 0 0 146 25;" xml:space="preserve">
<style type="text/css">
	.st0{fill:#FFFFFF;}
</style>
<title>LOGO</title>
<desc>Created with Sketch.</desc>
<g id="Account-Settings">
	<g id="Team-2" transform="translate(-198.000000, -12.000000)">
		<g id="LOGO" transform="translate(198.000000, 12.000000)">
			<path id="Fill-1" class="st0" d="M11.6,0.2l4.7,2.7l0,0L16.6,3c0,0,0,0,0,0v0l0,0v0l4.7,2.7l0,0l0.3,0.1C21.7,6,21.9,6.2,22,6.3
				c0.1,0.2,0.1,0.3,0.1,0.5h0v6.8l-2-1.2v-5l-4.5-2.6c0,0,0,0,0,0c0,0,0,0,0,0l-0.3-0.1l0,0l-4.3-2.5L6.6,4.8c0,0,0,0,0,0h0
				c0,0,0,0,0,0L6.3,4.9l0,0L2.1,7.4v5.2v5.2l4.5,2.6c0,0,0,0,0,0l0,0l0.3,0.1l0,0l1.9,1.1l0.1,0.1v0.2v1.6V24l-0.4-0.3l-2.6-1.5
				l0,0l-0.3-0.1c0,0,0,0,0,0l0,0l-4.7-2.7l0,0l-0.3-0.1c-0.2-0.1-0.3-0.2-0.4-0.4C0.1,18.7,0,18.6,0,18.4h0v-5.8V6.8
				c0-0.2,0.1-0.4,0.2-0.5l0,0C0.3,6.1,0.4,6,0.6,5.9l4.7-2.7l0,0L5.5,3c0,0,0,0,0,0l0,0l0.2-0.1l0,0l4.5-2.6l0,0l0.3-0.1
				C10.7,0.1,10.9,0,11.1,0C11.3,0,11.5,0.1,11.6,0.2L11.6,0.2z M8.7,9.8l11.4,6.6v-2l2,1.2v1.8v0.5l-1,1C21,19,20.7,19.1,20.6,19
				l0,0l-8.4-4.9l0,9.3c0,0.1,0,0.2-0.1,0.3l-0.2-0.2l0.2,0.2l-1.4,1.1c-0.1,0-0.1,0.1-0.2,0.1c-0.2,0-0.3-0.1-0.3-0.3h0V13
				l-1.9-1.1l-1,0.6c0,0,0,0,0,0l0,0l-0.6,0.3c0,0,0,0,0,0c-0.1,0.1-0.3,0-0.4-0.1l0.3-0.1l-0.3,0.1l-0.4-0.6l0,0l-0.3-0.6
				c0,0,0,0,0,0c-0.1-0.1,0-0.3,0.1-0.4l0.1,0.3l-0.1-0.3l0.6-0.4l1.5-0.9L8,9.6c0.1-0.1,0.2-0.1,0.3,0l0,0L8.7,9.8z"/>
			<path id="Fill-3" class="st0" d="M28.8,19.2c-0.1,0-0.2,0-0.3-0.1c-0.1-0.1-0.1-0.2-0.1-0.3V7.5c0-0.1,0-0.2,0.1-0.3
				c0.1-0.1,0.2-0.1,0.3-0.1h2.4c0.1,0,0.2,0,0.3,0.1c0.1,0.1,0.1,0.2,0.1,0.3v9h5.2c0.1,0,0.2,0,0.3,0.1c0.1,0.1,0.1,0.2,0.1,0.3
				v1.8c0,0.1,0,0.2-0.1,0.3c-0.1,0.1-0.2,0.1-0.3,0.1H28.8z M38.1,19.2c-0.1,0-0.2,0-0.3-0.1c-0.1-0.1-0.1-0.2-0.1-0.3
				c0-0.1,0-0.1,0-0.2l4-11.1c0.1-0.3,0.3-0.5,0.7-0.5h2.7c0.3,0,0.6,0.2,0.7,0.5l4,11.1c0,0,0,0.1,0,0.2c0,0.1,0,0.2-0.1,0.3
				c-0.1,0.1-0.2,0.1-0.3,0.1h-2.3c-0.3,0-0.5-0.1-0.6-0.4l-0.6-1.7h-4.5l-0.6,1.7c-0.1,0.3-0.3,0.4-0.6,0.4H38.1z M42.3,14.5h3.1
				l-1.5-4.4L42.3,14.5z M51.7,19.2c-0.1,0-0.2,0-0.3-0.1c-0.1-0.1-0.1-0.2-0.1-0.3V7.5c0-0.1,0-0.2,0.1-0.3
				c0.1-0.1,0.2-0.1,0.3-0.1h2c0.3,0,0.5,0.1,0.6,0.4l3,5.3l3-5.3c0.1-0.3,0.3-0.4,0.6-0.4h2c0.1,0,0.2,0,0.3,0.1
				c0.1,0.1,0.1,0.2,0.1,0.3v11.2c0,0.1,0,0.2-0.1,0.3c-0.1,0.1-0.2,0.1-0.3,0.1h-2.2c-0.1,0-0.2,0-0.3-0.1
				c-0.1-0.1-0.1-0.2-0.1-0.3v-6.3l-1.9,3.4c-0.2,0.3-0.4,0.4-0.6,0.4h-0.9c-0.2,0-0.4-0.1-0.6-0.4l-1.9-3.4v6.3
				c0,0.1,0,0.2-0.1,0.3c-0.1,0.1-0.2,0.1-0.3,0.1H51.7z M66.1,19.2c-0.1,0-0.2,0-0.3-0.1c-0.1-0.1-0.1-0.2-0.1-0.3V7.5
				c0-0.1,0-0.2,0.1-0.3c0.1-0.1,0.2-0.1,0.3-0.1h5.3c1.5,0,2.6,0.3,3.3,0.9c0.7,0.6,1.1,1.5,1.1,2.6c0,0.6-0.1,1-0.4,1.4
				c-0.3,0.4-0.6,0.7-1,0.9c0.5,0.2,0.9,0.6,1.2,1c0.3,0.5,0.5,1,0.5,1.6c0,1.2-0.4,2.1-1.2,2.7c-0.8,0.6-1.9,1-3.3,1H66.1z
				 M71,11.8c0.4,0,0.8-0.1,1-0.3c0.2-0.2,0.3-0.5,0.3-0.9c0-0.4-0.1-0.6-0.3-0.9c-0.2-0.2-0.6-0.3-1-0.3h-2.2v2.5H71z M71.2,16.8
				c0.4,0,0.8-0.1,1-0.4c0.2-0.3,0.4-0.6,0.4-1c0-0.4-0.1-0.7-0.4-1c-0.3-0.3-0.6-0.4-1-0.4h-2.3v2.7H71.2z M78.3,19.2
				c-0.1,0-0.2,0-0.3-0.1c-0.1-0.1-0.1-0.2-0.1-0.3V7.5c0-0.1,0-0.2,0.1-0.3c0.1-0.1,0.2-0.1,0.3-0.1h4.6c1.7,0,3,0.4,4,1.2
				c0.9,0.8,1.4,2,1.5,3.5c0,0.3,0,0.8,0,1.3c0,0.6,0,1,0,1.3c-0.1,3.2-1.9,4.7-5.4,4.7H78.3z M82.9,16.6c0.7,0,1.3-0.2,1.6-0.5
				c0.3-0.3,0.5-0.9,0.6-1.7c0-0.3,0-0.8,0-1.3c0-0.5,0-1,0-1.3c0-0.7-0.2-1.3-0.6-1.6c-0.4-0.4-0.9-0.5-1.7-0.5h-1.6v6.9H82.9z
				 M89.6,19.2c-0.1,0-0.2,0-0.3-0.1c-0.1-0.1-0.1-0.2-0.1-0.3c0-0.1,0-0.1,0-0.2l4-11.1c0.1-0.3,0.3-0.5,0.7-0.5h2.7
				c0.3,0,0.6,0.2,0.7,0.5l4,11.1c0,0,0,0.1,0,0.2c0,0.1,0,0.2-0.1,0.3c-0.1,0.1-0.2,0.1-0.3,0.1h-2.3c-0.3,0-0.5-0.1-0.6-0.4
				l-0.6-1.7h-4.5l-0.6,1.7c-0.1,0.3-0.3,0.4-0.6,0.4H89.6z M93.8,14.5h3.1l-1.5-4.4L93.8,14.5z"/>
			<path id="Fill-5" class="st0" d="M105.9,19.2c-0.1,0-0.2,0-0.3-0.1c-0.1-0.1-0.1-0.2-0.1-0.3V9.9h-3c-0.1,0-0.2,0-0.3-0.1
				c-0.1-0.1-0.1-0.2-0.1-0.3V7.5c0-0.1,0-0.2,0.1-0.3c0.1-0.1,0.2-0.1,0.3-0.1h9.4c0.1,0,0.2,0,0.3,0.1c0.1,0.1,0.1,0.2,0.1,0.3
				v1.9c0,0.1,0,0.2-0.1,0.3c-0.1,0.1-0.2,0.1-0.3,0.1h-3v8.9c0,0.1,0,0.2-0.1,0.3c-0.1,0.1-0.2,0.1-0.3,0.1H105.9z M114.2,19.2
				c-0.1,0-0.2,0-0.3-0.1c-0.1-0.1-0.1-0.2-0.1-0.3V7.5c0-0.1,0-0.2,0.1-0.3c0.1-0.1,0.2-0.1,0.3-0.1h8.2c0.1,0,0.2,0,0.3,0.1
				c0.1,0.1,0.1,0.2,0.1,0.3v1.7c0,0.1,0,0.2-0.1,0.3c-0.1,0.1-0.2,0.1-0.3,0.1h-5.5v2.2h5.1c0.1,0,0.2,0,0.3,0.1
				c0.1,0.1,0.1,0.2,0.1,0.3v1.6c0,0.1,0,0.2-0.1,0.3c-0.1,0.1-0.2,0.1-0.3,0.1h-5.1v2.3h5.6c0.1,0,0.2,0,0.3,0.1
				c0.1,0.1,0.1,0.2,0.1,0.3v1.7c0,0.1,0,0.2-0.1,0.3c-0.1,0.1-0.2,0.1-0.3,0.1H114.2z M129.5,19.3c-1.1,0-2.1-0.2-2.9-0.5
				c-0.8-0.3-1.4-0.8-1.8-1.3c-0.4-0.5-0.6-1.1-0.6-1.7c0-0.1,0-0.2,0.1-0.3c0.1-0.1,0.2-0.1,0.3-0.1h2.3c0.1,0,0.3,0,0.3,0.1
				c0.1,0,0.2,0.1,0.3,0.2c0.2,0.3,0.4,0.5,0.7,0.7c0.3,0.2,0.7,0.3,1.3,0.3c0.6,0,1.1-0.1,1.4-0.3c0.3-0.2,0.5-0.5,0.5-0.8
				c0-0.2-0.1-0.4-0.3-0.6c-0.2-0.2-0.4-0.3-0.8-0.4c-0.4-0.1-0.9-0.3-1.6-0.4c-1.4-0.3-2.4-0.7-3.1-1.3c-0.7-0.6-1-1.4-1-2.4
				c0-0.7,0.2-1.4,0.6-1.9c0.4-0.6,1-1,1.7-1.3c0.7-0.3,1.6-0.5,2.6-0.5c1,0,1.9,0.2,2.6,0.5c0.7,0.4,1.3,0.8,1.7,1.3
				c0.4,0.5,0.6,1,0.6,1.5c0,0.1,0,0.2-0.1,0.3c-0.1,0.1-0.2,0.1-0.3,0.1h-2.4c-0.3,0-0.5-0.1-0.6-0.3c-0.1-0.2-0.2-0.4-0.5-0.6
				c-0.3-0.2-0.6-0.3-1.1-0.3c-0.5,0-0.9,0.1-1.1,0.3c-0.3,0.2-0.4,0.4-0.4,0.8c0,0.3,0.2,0.6,0.5,0.8c0.3,0.2,1,0.4,1.9,0.6
				c1.1,0.2,1.9,0.4,2.6,0.7c0.6,0.3,1.1,0.7,1.4,1.1c0.3,0.5,0.5,1.1,0.5,1.8c0,0.8-0.2,1.5-0.7,2c-0.4,0.6-1.1,1-1.9,1.3
				C131.4,19.2,130.5,19.3,129.5,19.3L129.5,19.3z M139.5,19.2c-0.1,0-0.2,0-0.3-0.1c-0.1-0.1-0.1-0.2-0.1-0.3V9.9h-3
				c-0.1,0-0.2,0-0.3-0.1c-0.1-0.1-0.1-0.2-0.1-0.3V7.5c0-0.1,0-0.2,0.1-0.3c0.1-0.1,0.2-0.1,0.3-0.1h9.4c0.1,0,0.2,0,0.3,0.1
				c0.1,0.1,0.1,0.2,0.1,0.3v1.9c0,0.1,0,0.2-0.1,0.3c-0.1,0.1-0.2,0.1-0.3,0.1h-3v8.9c0,0.1,0,0.2-0.1,0.3
				c-0.1,0.1-0.2,0.1-0.3,0.1H139.5z"/>
		</g>
	</g>
</g>
</svg>
