<svg width="32" height="33" viewBox="0 0 32 33" fill="none" xmlns="http://www.w3.org/2000/svg">
<g filter="url(#filter0_d_21351_12892)">
<g clip-path="url(#clip0_21351_12892)">
<rect width="32" height="32" rx="6" fill="#21262D"/>
<path d="M17.4688 13.2816L17.2831 13.9211H17.949H21.55C21.9189 13.9211 22.3333 14.291 22.3333 14.8947V16.3684V16.3691C22.3334 16.4058 22.3277 16.4408 22.3174 16.4722L20.549 21.8869C20.5489 21.8871 20.5489 21.8874 20.5488 21.8876C20.4842 22.0827 20.3733 22.2398 20.2411 22.3449L20.2411 22.345C20.1099 22.4493 19.9633 22.4992 19.8207 22.5H11.2833C10.9144 22.5 10.5 22.1301 10.5 21.5263V14.8947C10.5 14.291 10.9144 13.9211 11.2833 13.9211H12.9074H13.1623L13.3121 13.7147L16.327 9.56007C16.3271 9.55994 16.3272 9.55981 16.3273 9.55969C16.3663 9.50644 16.403 9.5 16.4167 9.5H17.451C17.6708 9.5 17.9095 9.62338 18.0696 9.87809C18.2315 10.136 18.2808 10.4845 18.1892 10.8011L17.4688 13.2816Z" stroke="#7D8590"/>
</g>
<rect x="0.5" y="0.5" width="31" height="31" rx="5.5" stroke="#30363D"/>
</g>
<defs>
<filter id="filter0_d_21351_12892" x="0" y="0" width="32" height="33" filterUnits="userSpaceOnUse" color-interpolation-filters="sRGB">
<feFlood flood-opacity="0" result="BackgroundImageFix"/>
<feColorMatrix in="SourceAlpha" type="matrix" values="0 0 0 0 0 0 0 0 0 0 0 0 0 0 0 0 0 0 127 0" result="hardAlpha"/>
<feOffset dy="1"/>
<feColorMatrix type="matrix" values="0 0 0 0 0.121569 0 0 0 0 0.121569 0 0 0 0 0.121569 0 0 0 0.04 0"/>
<feBlend mode="normal" in2="BackgroundImageFix" result="effect1_dropShadow_21351_12892"/>
<feBlend mode="normal" in="SourceGraphic" in2="effect1_dropShadow_21351_12892" result="shape"/>
</filter>
<clipPath id="clip0_21351_12892">
<rect width="32" height="32" rx="6" fill="white"/>
</clipPath>
</defs>
</svg>
