<svg width="32" height="33" viewBox="0 0 32 33" fill="none" xmlns="http://www.w3.org/2000/svg">
<g filter="url(#filter0_d_20381_3253)">
<g clip-path="url(#clip0_20381_3253)">
<rect width="32" height="32" rx="6" fill="#F7F7F7"/>
<path d="M17.4688 18.7184L17.2831 18.0789H17.949H21.55C21.9189 18.0789 22.3333 17.709 22.3333 17.1053V15.6316V15.6309C22.3334 15.5942 22.3277 15.5592 22.3174 15.5278L20.549 10.1131C20.5489 10.1129 20.5489 10.1126 20.5488 10.1124C20.4842 9.91729 20.3733 9.76025 20.2411 9.65507L20.2411 9.65505C20.1099 9.55066 19.9633 9.50076 19.8207 9.5H11.2833C10.9144 9.5 10.5 9.86988 10.5 10.4737V17.1053C10.5 17.709 10.9144 18.0789 11.2833 18.0789H12.9074H13.1623L13.3121 18.2853L16.327 22.4399C16.3271 22.4401 16.3272 22.4402 16.3273 22.4403C16.3663 22.4936 16.403 22.5 16.4167 22.5H17.451C17.6708 22.5 17.9095 22.3766 18.0696 22.1219C18.2315 21.864 18.2808 21.5155 18.1892 21.1989L17.4688 18.7184Z" stroke="#666666"/>
</g>
<rect x="0.5" y="0.5" width="31" height="31" rx="5.5" stroke="#D4D4D4"/>
</g>
<defs>
<filter id="filter0_d_20381_3253" x="0" y="0" width="32" height="33" filterUnits="userSpaceOnUse" color-interpolation-filters="sRGB">
<feFlood flood-opacity="0" result="BackgroundImageFix"/>
<feColorMatrix in="SourceAlpha" type="matrix" values="0 0 0 0 0 0 0 0 0 0 0 0 0 0 0 0 0 0 127 0" result="hardAlpha"/>
<feOffset dy="1"/>
<feColorMatrix type="matrix" values="0 0 0 0 0.121569 0 0 0 0 0.121569 0 0 0 0 0.121569 0 0 0 0.04 0"/>
<feBlend mode="normal" in2="BackgroundImageFix" result="effect1_dropShadow_20381_3253"/>
<feBlend mode="normal" in="SourceGraphic" in2="effect1_dropShadow_20381_3253" result="shape"/>
</filter>
<clipPath id="clip0_20381_3253">
<rect width="32" height="32" rx="6" fill="white"/>
</clipPath>
</defs>
</svg>
