<svg width="16" height="16" viewBox="0 0 16 16" fill="none" xmlns="http://www.w3.org/2000/svg">
<g clip-path="url(#clip0_13977_1201)">
<path d="M14.5 3.61467V4.90315V7.48011C14.5 8.90122 14.2878 10.6445 12.7845 12.3186C10.6947 14.4109 8.15646 15.2486 8.00232 15.25C7.84818 15.2514 5.14604 14.3162 3.22761 12.3186C1.75907 10.7883 1.5 8.89712 1.5 7.47966V2.89554C1.50004 2.68851 1.57209 2.48767 1.70428 2.32619C1.83646 2.1647 2.02087 2.05221 2.22707 2.00729L8 0.75L10.8865 1.37864L11.531 1.54766" stroke="#666666" stroke-width="1.25" stroke-linecap="round" stroke-linejoin="round"/>
<path d="M8 4.5C8.55228 4.5 9 4.05228 9 3.5C9 2.94772 8.55228 2.5 8 2.5C7.44772 2.5 7 2.94772 7 3.5C7 4.05228 7.44772 4.5 8 4.5Z" fill="#666666"/>
<path d="M6.25 12L8 7.91667M8 7.91667L9.75 12M8 7.91667V6.16667M5 5L8 6.16667M8 6.16667L11 5" stroke="#666666" stroke-width="1.25" stroke-linecap="round" stroke-linejoin="round"/>
<path fill-rule="evenodd" clip-rule="evenodd" d="M13.75 4.5C14.9926 4.5 16 3.49264 16 2.25C16 1.00736 14.9926 0 13.75 0C12.5074 0 11.5 1.00736 11.5 2.25C11.5 3.49264 12.5074 4.5 13.75 4.5ZM14.982 2.04463C15.1447 1.91651 15.1728 1.68073 15.0446 1.51801C14.9165 1.35529 14.6807 1.32725 14.518 1.45537L13.5071 2.25139L13.2625 2.01166C13.1146 1.86667 12.8772 1.86902 12.7322 2.01691C12.5872 2.1648 12.5896 2.40223 12.7375 2.54722L13.2175 3.01778L13.4529 3.24861L13.712 3.04463L14.982 2.04463Z" fill="#666666"/>
</g>
<defs>
<clipPath id="clip0_13977_1201">
<rect width="16" height="16" fill="white"/>
</clipPath>
</defs>
</svg>
