<svg width="16" height="16" viewBox="0 0 16 16" fill="none" xmlns="http://www.w3.org/2000/svg">
<path d="M14.4167 2H1.58333C1.26117 2 1 2.26117 1 2.58333V2.6V13.4V13.4167C1 13.7388 1.26117 14 1.58333 14H14.4167C14.7388 14 15 13.7388 15 13.4167V13.4V2.6V2.58333C15 2.26117 14.7388 2 14.4167 2Z" stroke="#7D8590" stroke-width="1.25" stroke-linecap="round"/>
<path d="M3.875 4.75C3.875 4.81904 3.81904 4.875 3.75 4.875C3.68096 4.875 3.625 4.81904 3.625 4.75C3.625 4.68096 3.68096 4.625 3.75 4.625C3.81904 4.625 3.875 4.68096 3.875 4.75Z" fill="#7D8590" stroke="#7D8590" stroke-width="1.25"/>
<path d="M6.375 4.75C6.375 4.81904 6.31904 4.875 6.25 4.875C6.18096 4.875 6.125 4.81904 6.125 4.75C6.125 4.68096 6.18096 4.625 6.25 4.625C6.31904 4.625 6.375 4.68096 6.375 4.75Z" fill="#7D8590" stroke="#7D8590" stroke-width="1.25"/>
</svg>
