<svg width="16" height="16" viewBox="0 0 16 16" fill="none" xmlns="http://www.w3.org/2000/svg">
<path d="M8.24978 11.25L6.31228 13.1875C6.17292 13.3273 6.00733 13.4383 5.825 13.514C5.64268 13.5897 5.4472 13.6287 5.24978 13.6287C5.05236 13.6287 4.85688 13.5897 4.67455 13.514C4.49222 13.4383 4.32663 13.3273 4.18728 13.1875L2.81228 11.8125C2.67244 11.6731 2.56148 11.5076 2.48577 11.3252C2.41007 11.1429 2.37109 10.9474 2.37109 10.75C2.37109 10.5526 2.41007 10.3571 2.48577 10.1748C2.56148 9.99244 2.67244 9.82686 2.81228 9.6875L4.74978 7.75" stroke="#666666" stroke-width="1.25" stroke-linecap="round" stroke-linejoin="round"/>
<path d="M3.5 12.5L1.5 14.5" stroke="#666666" stroke-width="1.25" stroke-linecap="round" stroke-linejoin="round"/>
<path d="M14.5 1.5L12.5 3.5" stroke="#666666" stroke-width="1.25" stroke-linecap="round" stroke-linejoin="round"/>
<path d="M9 9L7.5 10.5" stroke="#666666" stroke-width="1.25" stroke-linecap="round" stroke-linejoin="round"/>
<path d="M7 7L5.5 8.5" stroke="#666666" stroke-width="1.25" stroke-linecap="round" stroke-linejoin="round"/>
<path d="M11.25 8.25027L13.1875 6.31277C13.3273 6.17341 13.4383 6.00782 13.514 5.82549C13.5897 5.64317 13.6287 5.44769 13.6287 5.25027C13.6287 5.05284 13.5897 4.85737 13.514 4.67504C13.4383 4.49271 13.3273 4.32712 13.1875 4.18777L11.8125 2.81276C11.6731 2.67293 11.5076 2.56197 11.3252 2.48626C11.1429 2.41055 10.9474 2.37158 10.75 2.37158C10.5526 2.37158 10.3571 2.41055 10.1748 2.48626C9.99244 2.56197 9.82686 2.67293 9.6875 2.81276L7.75 4.75027" stroke="#666666" stroke-width="1.25" stroke-linecap="round" stroke-linejoin="round"/>
<path d="M7.25 4.25L11.75 8.75" stroke="#666666" stroke-width="1.25" stroke-linecap="round" stroke-linejoin="round"/>
<path d="M4.25 7.25L8.75 11.75" stroke="#666666" stroke-width="1.25" stroke-linecap="round" stroke-linejoin="round"/>
</svg>
