<svg width="16" height="16" viewBox="0 0 16 16" fill="none" xmlns="http://www.w3.org/2000/svg">
<g clip-path="url(#clip0_13977_249)">
<path d="M4.77778 11.7976H6.38889M10.4167 10.4167V12.6723C10.4167 13.5745 10.4165 14.0256 10.2554 14.372C10.0943 14.67 9.85309 14.9197 9.53087 15.0728C9.20865 15.25 8.72484 15.25 7.83873 15.25H3.32794C2.44182 15.25 1.95802 15.25 1.6358 15.0728C1.31357 14.9197 1.07238 14.67 0.911268 14.372C0.750157 14.0256 0.75 13.5745 0.75 12.6723V3.32774C0.75 2.42552 0.750157 1.97442 0.911268 1.62803C1.07238 1.32997 1.31357 1.08025 1.6358 0.927199C1.95802 0.749976 2.44182 0.75 3.32794 0.75H5.58333M8.80556 4.01254C9.61111 4.17365 10.2556 4.55225 10.8194 5.10808C11.3833 5.67197 11.7864 6.38079 11.9475 7.15413M8.80556 0.75C10.4167 0.935278 11.9475 1.6683 13.1559 2.8283C14.2836 3.99635 15.0083 5.51885 15.25 7.15413" stroke="#666666" stroke-width="1.25" stroke-linecap="round" stroke-linejoin="round"/>
</g>
<defs>
<clipPath id="clip0_13977_249">
<rect width="16" height="16" fill="white"/>
</clipPath>
</defs>
</svg>
