<svg width="16" height="16" viewBox="0 0 16 16" fill="none" xmlns="http://www.w3.org/2000/svg">
<path d="M2.4 3.8C1.525 4.969 1 6.425 1 8C1 11.864 4.136 15 8 15C11.864 15 15 11.864 15 8C15 4.136 11.864 1 8 1C6.999 1 6.04 1.21 5.179 1.595" stroke="#7D8590" stroke-width="1.25" stroke-linecap="round" stroke-linejoin="round"/>
<path d="M8.04199 4.5C8.04199 4.15482 7.76217 3.875 7.41699 3.875C7.07181 3.875 6.79199 4.15482 6.79199 4.5H8.04199ZM7.41699 8H6.79199V8.29273L7.01688 8.48014L7.41699 8ZM10.5169 11.3968L10.997 11.7969L11.7972 10.8366L11.3171 10.4365L10.5169 11.3968ZM6.79199 4.5V8H8.04199V4.5H6.79199ZM7.01688 8.48014L10.5169 11.3968L11.3171 10.4365L7.81711 7.51986L7.01688 8.48014Z" fill="#7D8590"/>
</svg>
