<svg width="16" height="16" viewBox="0 0 16 16" fill="none" xmlns="http://www.w3.org/2000/svg">
<path d="M7.87359 10.2604C9.12623 10.2604 10.1417 9.24844 10.1417 8.00009C10.1417 6.75174 9.12623 5.73975 7.87359 5.73975C6.62094 5.73975 5.60547 6.75174 5.60547 8.00009C5.60547 9.24844 6.62094 10.2604 7.87359 10.2604Z" stroke="#666666" stroke-width="0.908646" stroke-linecap="round" stroke-linejoin="round"/>
<path d="M12.1766 4.20167L12.8015 4.21223L12.1766 4.20167C12.1694 4.63165 12.3057 5.02452 12.4937 5.34883C12.6807 5.67155 12.9521 5.98358 13.3263 6.19092L13.9875 6.55726C14.3464 6.75616 14.5644 7.06946 14.5953 7.39221C14.6337 7.79492 14.6349 8.20031 14.5986 8.60322C14.5694 8.92844 14.3503 9.24473 13.9882 9.44456L13.3281 9.80892C12.9529 10.016 12.6808 10.3284 12.4934 10.6516C12.3055 10.9756 12.1693 11.3681 12.1766 11.7977L12.8015 11.7871L12.1766 11.7977L12.1892 12.544C12.1962 12.9568 12.0312 13.3052 11.763 13.4944C11.4308 13.7287 11.0781 13.9326 10.709 14.1036C10.4111 14.2416 10.0269 14.2108 9.67265 13.999L9.02624 13.6124C8.66072 13.3939 8.2548 13.3102 7.87459 13.3102C7.49511 13.3101 7.08996 13.3934 6.72489 13.6112L6.07797 13.997C5.72648 14.2066 5.34647 14.238 5.05117 14.1033C4.67817 13.9331 4.32179 13.7288 3.98662 13.4932C3.71887 13.305 3.55384 12.9571 3.56084 12.544L3.57336 11.8054C3.58061 11.3779 3.44788 10.9851 3.26 10.6584C3.07066 10.3292 2.79531 10.015 2.41846 9.80618L1.76253 9.44274C1.40356 9.24384 1.1856 8.93054 1.15475 8.60779C1.11625 8.20508 1.11512 7.79969 1.15135 7.39678C1.18061 7.07156 1.39972 6.75527 1.76178 6.55544L1.4736 6.03332L1.76178 6.55544L2.42191 6.19108C2.79709 5.984 3.06918 5.67161 3.2566 5.34836C3.44447 5.02436 3.58065 4.63186 3.5734 4.20229L3.56079 3.45601C3.55382 3.04316 3.71881 2.69479 3.987 2.50561C4.31916 2.2713 4.67195 2.0674 5.04103 1.89642C5.3389 1.75843 5.7231 1.78922 6.07735 2.00104L6.72376 2.38756C7.08928 2.60612 7.4952 2.6898 7.87541 2.68983C8.25489 2.68986 8.66004 2.60656 9.02511 2.38884L9.67203 2.00303C10.0235 1.79341 10.4035 1.76201 10.6988 1.89675C11.0719 2.06694 11.4282 2.27117 11.7634 2.5068C12.0312 2.69501 12.1962 3.04286 12.1892 3.45597L12.1766 4.20167Z" stroke="#666666" stroke-width="1.25" stroke-linecap="round"/>
</svg>
