<svg width="16" height="16" viewBox="0 0 16 16" fill="none" xmlns="http://www.w3.org/2000/svg">
<path d="M7.87359 10.2604C9.12623 10.2604 10.1417 9.24844 10.1417 8.00009C10.1417 6.75174 9.12623 5.73975 7.87359 5.73975C6.62094 5.73975 5.60547 6.75174 5.60547 8.00009C5.60547 9.24844 6.62094 10.2604 7.87359 10.2604Z" stroke="#7D8590" stroke-width="0.908646" stroke-linecap="round" stroke-linejoin="round"/>
<path d="M12.1756 4.20167L12.8005 4.21223L12.1756 4.20167C12.1684 4.63165 12.3047 5.02452 12.4927 5.34883C12.6798 5.67155 12.9511 5.98358 13.3253 6.19092L13.9865 6.55726C14.3455 6.75616 14.5634 7.06946 14.5943 7.39221C14.6328 7.79492 14.6339 8.20031 14.5977 8.60322C14.5684 8.92844 14.3493 9.24473 13.9872 9.44456L13.3271 9.80892C12.9519 10.016 12.6798 10.3284 12.4924 10.6516C12.3046 10.9756 12.1684 11.3681 12.1756 11.7977L12.8005 11.7871L12.1756 11.7977L12.1882 12.544C12.1952 12.9568 12.0302 13.3052 11.762 13.4944C11.4299 13.7287 11.0771 13.9326 10.708 14.1036C10.4101 14.2416 10.0259 14.2108 9.67168 13.999L9.02527 13.6124C8.65974 13.3939 8.25382 13.3102 7.87362 13.3102C7.49414 13.3101 7.08898 13.3934 6.72391 13.6112L6.07699 13.997C5.7255 14.2066 5.3455 14.238 5.05019 14.1033C4.67719 13.9331 4.32081 13.7288 3.98564 13.4932C3.71789 13.305 3.55286 12.9571 3.55986 12.544L3.57238 11.8054C3.57963 11.3779 3.44691 10.9851 3.25902 10.6584C3.06968 10.3292 2.79433 10.015 2.41748 9.80618L1.76155 9.44274C1.40259 9.24384 1.18462 8.93054 1.15377 8.60779C1.11527 8.20508 1.11414 7.79969 1.15038 7.39678C1.17963 7.07156 1.39875 6.75527 1.7608 6.55544L1.47262 6.03332L1.7608 6.55544L2.42094 6.19108C2.79611 5.984 3.0682 5.67161 3.25563 5.34836C3.44349 5.02436 3.57968 4.63186 3.57242 4.20229L3.55981 3.45601C3.55284 3.04316 3.71784 2.69479 3.98602 2.50561C4.31818 2.2713 4.67097 2.0674 5.04006 1.89642C5.33792 1.75843 5.72212 1.78922 6.07637 2.00104L6.72278 2.38756C7.0883 2.60612 7.49422 2.6898 7.87443 2.68983C8.25391 2.68986 8.65907 2.60656 9.02414 2.38884L9.67106 2.00303C10.0225 1.79341 10.4026 1.76201 10.6979 1.89675C11.0709 2.06694 11.4273 2.27117 11.7625 2.5068C12.0302 2.69501 12.1952 3.04286 12.1882 3.45597L12.1756 4.20167Z" stroke="#7D8590" stroke-width="1.25" stroke-linecap="round"/>
</svg>
