<svg width="16" height="16" viewBox="0 0 16 16" fill="none" xmlns="http://www.w3.org/2000/svg">
<path d="M11.9625 5.28039V2.00391C11.9625 1.45162 11.5148 1.00391 10.9625 1.00391H8.29655H3.40952H1.966C1.41372 1.00391 0.966003 1.45162 0.966003 2.00391V13.4439C0.966003 13.9962 1.41372 14.4439 1.966 14.4439H5.69843" stroke="#666666" stroke-width="1.25" stroke-linecap="round"/>
<path d="M3.19843 4.05859H3.69843" stroke="#666666" stroke-linecap="round"/>
<path d="M3.19843 7.50195H3.69843" stroke="#666666" stroke-linecap="round"/>
<path d="M3.19843 10.9453H3.69843" stroke="#666666" stroke-linecap="round"/>
<path d="M5.24139 4.05859H9.74139" stroke="#666666" stroke-linecap="round"/>
<path d="M5.24139 7.50195L7.99139 7.5004" stroke="#666666" stroke-linecap="round"/>
<path d="M5.2392 10.9502H7.0392" stroke="#666666" stroke-linecap="round"/>
<path d="M10.8963 7.90714V9.85714C10.8963 9.9481 10.8709 10.0375 10.8218 10.1143C10.8218 10.1143 10.8217 10.1143 10.8217 10.1144L9.92884 11.5214H13.4728L12.5798 10.1143L12.5798 10.1142L12.622 10.0874C12.5783 10.0186 12.5551 9.93872 12.5554 9.85714L10.8963 7.90714ZM10.8963 7.90714H12.5054H10.8963ZM15.5406 12.9972L15.5406 12.9972L13.4599 9.71805V7.90714H13.5523C13.6789 7.90714 13.8004 7.85669 13.8899 7.76692C13.9793 7.67716 14.0296 7.55545 14.0296 7.42857C14.0296 7.3017 13.9793 7.17999 13.8899 7.09022C13.8004 7.00046 13.6789 6.95 13.5523 6.95H9.84929C9.72266 6.95 9.60125 7.00046 9.51176 7.09022C9.42227 7.17999 9.37202 7.3017 9.37202 7.42857C9.37202 7.55545 9.42227 7.67716 9.51176 7.76692C9.60125 7.85669 9.72266 7.90714 9.84929 7.90714H9.94172V9.71805L7.86099 12.9972L7.86099 12.9972C7.29709 13.8863 7.9336 15.05 8.98506 15.05H14.4165C15.468 15.05 16.1045 13.8863 15.5406 12.9972ZM8.66665 13.5108L8.66667 13.5108L9.32133 12.4786H14.0803L14.7349 13.5108L14.735 13.5108C14.7713 13.5681 14.7917 13.6341 14.7939 13.7019C14.7961 13.7698 14.7801 13.837 14.7475 13.8965C14.7149 13.956 14.667 14.0056 14.6088 14.0402C14.5506 14.0747 14.4842 14.0929 14.4166 14.0929H14.4165H8.98506H8.98503C8.91742 14.0929 8.85103 14.0747 8.79281 14.0402C8.73459 14.0056 8.68668 13.956 8.65411 13.8965C8.62154 13.837 8.60552 13.7698 8.60772 13.7019C8.60993 13.6341 8.63029 13.5681 8.66665 13.5108ZM8.98506 14.1429H14.4165C14.4932 14.1429 14.5684 14.1223 14.6343 14.0832C14.7002 14.0441 14.7545 13.9879 14.7914 13.9205C14.8282 13.8532 14.8464 13.7771 14.8439 13.7003C14.8414 13.6235 14.8183 13.5488 14.7772 13.484L8.98506 14.1429Z" fill="#666666" stroke="#666666" stroke-width="0.1"/>
</svg>
