<svg width="16" height="16" viewBox="0 0 16 16" fill="none" xmlns="http://www.w3.org/2000/svg">
<path d="M10 2.01074H14C14.5523 2.01074 15 2.45846 15 3.01074V13.1407C15 13.693 14.5523 14.1407 14 14.1407H10" stroke="#7D8590" stroke-width="1.25" stroke-linecap="round"/>
<path d="M6.25 14.1406H2.00032C1.44803 14.1406 1.00032 13.6929 1.00032 13.1406V3.01066C1.00032 2.45838 1.44803 2.01066 2.00032 2.01066H6.25" stroke="#7D8590" stroke-width="1.25" stroke-linecap="round"/>
<path d="M8 1L8 15" stroke="#7D8590" stroke-width="1.25" stroke-linecap="round"/>
<path d="M6.25 12.75C6.25 12.8881 6.13807 13 6 13L2.85355 13C2.63083 13 2.51929 12.7307 2.67678 12.5732L4.75 10.5L5.82322 9.42678C5.98071 9.26929 6.25 9.38083 6.25 9.60355L6.25 12.75Z" fill="#7D8590"/>
</svg>
